<?xml version="1.0" standalone="no"?>
<!DOCTYPE svg PUBLIC "-//W3C//DTD SVG 20010904//EN"
 "http://www.w3.org/TR/2001/REC-SVG-20010904/DTD/svg10.dtd">
<svg version="1.0" xmlns="http://www.w3.org/2000/svg"
 width="836.000000pt" height="900.000000pt" viewBox="0 0 836.000000 900.000000"
 preserveAspectRatio="xMidYMid meet">
<metadata>
Created by potrace 1.14, written by Peter Selinger 2001-2017
</metadata>
<g transform="translate(0.000000,900.000000) scale(0.100000,-0.100000)"
fill="#f8f8f8" stroke="none">
<path d="M1012 8987 c-48 -15 -119 -82 -204 -194 -731 -955 -993 -2396 -672
-3703 45 -182 146 -487 214 -645 150 -350 398 -754 565 -922 90 -90 197 -103
297 -38 72 48 112 156 89 242 -6 23 -29 63 -51 90 -157 190 -276 369 -379 571
-77 152 -84 170 -206 533 -77 226 -112 346 -134 460 -110 562 -109 1146 5
1709 30 147 210 697 277 845 94 209 267 488 397 643 103 121 121 191 76 288
-50 107 -163 157 -274 121z"/>
<path d="M7207 8986 c-94 -35 -147 -110 -147 -209 0 -72 15 -108 75 -177 128
-146 262 -356 375 -581 62 -125 99 -222 184 -478 166 -497 205 -721 213 -1233
7 -407 -12 -628 -83 -973 -32 -155 -220 -717 -288 -860 -103 -216 -250 -451
-383 -611 -78 -93 -93 -126 -93 -196 1 -105 73 -196 174 -219 103 -23 174 17
293 164 428 533 712 1267 809 2087 21 183 30 676 15 867 -40 500 -135 922
-302 1348 -158 403 -508 963 -656 1051 -52 31 -133 40 -186 20z"/>
<path d="M2090 8138 c-52 -15 -101 -54 -161 -130 -452 -570 -657 -1417 -543
-2243 67 -486 255 -953 524 -1305 101 -131 145 -160 245 -160 123 0 217 95
217 220 0 66 -16 103 -77 175 -194 230 -363 603 -434 962 -46 227 -55 328 -54
578 0 250 18 412 70 630 76 322 240 671 416 880 62 74 80 115 79 183 -1 148
-139 251 -282 210z"/>
<path d="M6148 8139 c-49 -14 -117 -74 -139 -123 -21 -46 -24 -118 -8 -165 6
-17 42 -71 80 -119 230 -289 390 -684 456 -1127 13 -92 18 -183 18 -385 0
-281 -9 -367 -60 -605 -71 -330 -229 -676 -411 -900 -78 -97 -98 -143 -91
-217 10 -115 89 -190 207 -196 108 -6 156 26 279 193 175 235 316 527 406 835
192 662 160 1406 -87 2040 -119 305 -367 693 -479 750 -48 25 -120 33 -171 19z"/>
<path d="M3040 7288 c-85 -24 -180 -135 -276 -321 -207 -403 -230 -923 -59
-1362 66 -172 195 -368 276 -422 48 -32 136 -42 194 -23 85 28 144 113 145
208 0 66 -14 100 -78 185 -271 357 -269 985 4 1342 25 33 52 74 60 92 21 47
18 136 -6 182 -26 53 -92 107 -145 120 -51 13 -68 13 -115 -1z"/>
<path d="M5185 7291 c-75 -19 -121 -59 -154 -131 -39 -85 -23 -160 52 -256
138 -178 210 -410 210 -679 0 -273 -68 -495 -208 -683 -64 -86 -79 -127 -73
-193 11 -113 106 -198 221 -199 99 0 163 46 259 190 237 354 315 868 198 1312
-68 259 -228 546 -343 612 -47 27 -116 39 -162 27z"/>
<path d="M4066 6765 c-121 -31 -250 -123 -316 -225 -154 -240 -88 -570 146
-726 220 -145 512 -109 687 86 251 280 136 726 -219 851 -78 27 -219 34 -298
14z"/>
<path d="M4028 4961 c-218 -72 -359 -284 -484 -730 -37 -131 -1131 -3813
-1141 -3838 -8 -21 83 -104 163 -149 185 -104 495 -183 894 -229 193 -22 1216
-22 1405 0 386 45 681 119 869 218 84 44 189 136 181 159 -2 7 -261 881 -575
1943 -314 1062 -582 1966 -596 2010 -99 316 -228 511 -390 592 -67 33 -83 36
-172 40 -76 2 -110 -1 -154 -16z"/>
</g>
</svg>
